<svg xmlns="http://www.w3.org/2000/svg" width="96" height="96" viewBox="0 0 96 96">
  <circle cx="48" cy="48" r="46" fill="#f7f2ec" stroke="#3b4657" stroke-width="2" />
  <path d="M22 74c6-14 16-22 26-22s20 8 26 22" fill="#d6ad91" />
  <circle cx="48" cy="40" r="16" fill="#f0c2a8" />
  <path d="M24 40c6-12 24-16 36-6 4 3 6 7 6 12-6-4-14-6-22-7-8-1-14-1-20 1z" fill="#4a3642" />
  <circle cx="42" cy="42" r="2" fill="#2b313b" />
  <circle cx="54" cy="42" r="2" fill="#2b313b" />
  <path d="M42 50c4 3 8 3 12 0" stroke="#2b313b" stroke-width="2" stroke-linecap="round" fill="none" />
</svg>
