<svg xmlns="http://www.w3.org/2000/svg" width="96" height="96" viewBox="0 0 96 96">
  <circle cx="48" cy="48" r="46" fill="#f7f2ec" stroke="#3b4657" stroke-width="2" />
  <path d="M22 74c6-14 16-22 26-22s20 8 26 22" fill="#d9b59b" />
  <circle cx="48" cy="40" r="16" fill="#f2c4a0" />
  <path d="M28 34c6-10 22-12 32-4 4 3 6 7 6 12-5-3-12-5-18-6-8-1-14-2-20-2z" fill="#3b4657" />
  <circle cx="42" cy="42" r="2" fill="#2b313b" />
  <circle cx="54" cy="42" r="2" fill="#2b313b" />
  <path d="M42 50c4 3 8 3 12 0" stroke="#2b313b" stroke-width="2" stroke-linecap="round" fill="none" />
</svg>
